# xmcd CD database file
#
# Track frame offsets:
#	150
#	22075
#	42067
#	66915
#	88535
#	111722
#	131375
#	149992
#	168532
#	185957
#	202790
#	228160
#	252255
#	270997
#	290217
#
# Disc length: 4129 seconds
#
# Revision: 10
# Processed by: cddbd v1.5.2PL0 Copyright (c) Steve Scherf et al.
# Submitted via: CDex 1.70beta2
#
DISCID=e9101f0f
DTITLE=萬芳 - 滾石24K 28Bit珍藏版金碟系列
DYEAR=1998
DGENRE=Pop
TTITLE0=猜心
TTITLE1=新不了情
TTITLE2=多事的秋
TTITLE3=戀你
TTITLE4=試著了解
TTITLE5=我記得你眼裡的依戀
TTITLE6=一切如新
TTITLE7=斷線
TTITLE8=FLY AWAY
TTITLE9=割愛
TTITLE10=算了吧
TTITLE11=四季
TTITLE12=就值得了愛
TTITLE13=然後你怎麼說
TTITLE14=孩子氣
EXTD=YEAR: 1998
EXTT0=
EXTT1=
EXTT2=
EXTT3=
EXTT4=
EXTT5=
EXTT6=
EXTT7=
EXTT8=
EXTT9=
EXTT10=
EXTT11=
EXTT12=
EXTT13=
EXTT14=
PLAYORDER=
